/vscmnt/brussel_pixiu_data/_data_brussel/112/vsc11236/PredSimResults/SUBJ07opt3D/expIG/worker_03.mot
version=1
nRows=6
nColumns=50
inDegrees=yes
endheader
                time	         pelvis_tilt	         pelvis_list	     pelvis_rotation	           pelvis_tx	           pelvis_ty	           pelvis_tz	       hip_flexion_r	     hip_adduction_r	      hip_rotation_r	        knee_angle_r	       ankle_angle_r	         mtp_angle_r	       hip_flexion_l	     hip_adduction_l	      hip_rotation_l	        knee_angle_l	       ankle_angle_l	         mtp_angle_l	    lumbar_extension	      lumbar_bending	     lumbar_rotation	 ercspn_r/activation	 intobl_r/activation	 extobl_r/activation	    abd_r/activation	    add_r/activation	hamstrings_r/activation	bifemsh_r/activation	glut_max_r/activation	iliopsoas_r/activation	rect_fem_r/activation	  vasti_r/activation	gastroc_r/activation	 soleus_r/activation	tib_ant_r/activation	 ercspn_l/activation	 intobl_l/activation	 extobl_l/activation	    abd_l/activation	    add_l/activation	hamstrings_l/activation	bifemsh_l/activation	glut_max_l/activation	iliopsoas_l/activation	rect_fem_l/activation	  vasti_l/activation	gastroc_l/activation	 soleus_l/activation	tib_ant_l/activation	
          0.66598228	         -1.99819913	          0.55609514	         -8.30872954	          0.53278582	          0.86524682	          0.01876846	        -11.65806582	         -0.07141324	          2.62299527	         -7.76883624	         11.16167013	         20.19109775	         25.12722135	         -1.61833290	         -2.47620762	         -9.15054354	          0.23266423	          0.23743202	         -7.37295148	          2.54020917	         -0.34504049	          0.06809068	          0.01000014	          0.01000023	          0.04922140	          0.01000051	          0.01002673	          0.09468665	          0.01196974	          0.11510212	          0.01001762	          0.01000046	          0.12282252	          0.25963189	          0.01825597	          0.12115142	          0.12197878	          0.01000075	          0.01000123	          0.10136138	          0.02935587	          0.07529185	          0.05176552	          0.01635428	          0.01078868	          0.01221610	          0.01419318	          0.01222070	          0.30902738	
          0.67930193	         -2.04739671	          0.46160491	         -8.17498458	          0.54529110	          0.86404206	          0.01787530	        -12.04487100	         -0.06420573	          2.10692004	         -8.56415973	         10.76294836	         21.49703783	         24.63736294	         -1.42783675	         -2.20814561	         -9.72494600	          0.03498491	          0.23225756	         -7.25866228	          2.20101411	         -0.10700069	          0.08109621	          0.01000012	          0.01000032	          0.04027970	          0.01000081	          0.01048425	          0.07748562	          0.01098029	          0.09419223	          0.01000588	          0.01315441	          0.10316903	          0.25462685	          0.01493952	          0.10671460	          0.12689379	          0.01000049	          0.01001204	          0.09322345	          0.03453836	          0.06161728	          0.06202034	          0.01338340	          0.01000061	          0.01000021	          0.01161558	          0.01000079	          0.33297151	
          0.69262157	         -2.09186362	          0.36373126	         -7.99218183	          0.55797099	          0.86307650	          0.01686828	        -12.36120192	         -0.05016536	          1.56681645	         -9.50798114	         10.24120823	         22.81645318	         24.15693082	         -1.26372748	         -1.95995091	        -10.29121087	         -0.26894390	          0.22724079	         -7.13842242	          1.84923891	          0.13997799	          0.09597153	          0.01000009	          0.01000030	          0.03296236	          0.01000035	          0.01002625	          0.06340942	          0.01000136	          0.07708092	          0.02229748	          0.01556593	          0.08442694	          0.24543368	          0.01222555	          0.12027387	          0.10969817	          0.01000038	          0.05023677	          0.11191609	          0.03875929	          0.05042461	          0.06257106	          0.01095228	          0.01000084	          0.01007277	          0.01000054	          0.01000016	          0.36004288	
          0.70594122	         -2.13103820	          0.25541124	         -7.76089653	          0.57076204	          0.86246751	          0.01575194	        -12.58265073	         -0.02179959	          1.00285420	        -10.62666512	          9.54641300	         24.14914934	         23.72487031	         -1.12067834	         -1.76758472	        -10.94410580	         -0.56321040	          0.21857117	         -7.01537766	          1.49535244	          0.39079561	          0.11319253	          0.01000009	          0.01000030	          0.02697429	          0.01000035	          0.01002378	          0.05189036	          0.01000160	          0.06307812	          0.01824760	          0.02013388	          0.06908954	          0.23220256	          0.01000465	          0.12122483	          0.08976999	          0.01000033	          0.07646295	          0.11922430	          0.04326791	          0.04126546	          0.06399057	          0.01000059	          0.01000078	          0.02168097	          0.01000047	          0.01000016	          0.37859894	
          0.71926086	         -2.16487321	          0.13696890	         -7.48639935	          0.58361607	          0.86233237	          0.01453707	        -12.68505467	          0.01895075	          0.41486894	        -11.94325516	          8.63600152	         25.47943273	         23.33367494	         -0.99308148	         -1.62390601	        -11.69755512	         -0.68898209	          0.20734551	         -6.88818953	          1.14451242	          0.64149017	          0.13203949	          0.01000010	          0.01000029	          0.02207403	          0.01000504	          0.01023810	          0.04246390	          0.01135280	          0.05161912	          0.01493307	          0.02872335	          0.05653840	          0.21411981	          0.01000014	          0.11698044	          0.07346196	          0.01000029	          0.10032429	          0.12289638	          0.04699517	          0.03377047	          0.06463663	          0.01000082	          0.01000082	          0.03434628	          0.01000054	          0.01000015	          0.37760413	
          0.73258051	         -2.19413383	          0.00997027	         -7.17507607	          0.59646966	          0.86276886	          0.01323554	        -12.65333919	          0.06865737	         -0.20100941	        -13.45889620	          7.48450092	         26.75404829	         22.96997658	         -0.87416047	         -1.50002934	        -12.54386278	         -0.54136308	          0.20955698	         -6.75797827	          0.80089520	          0.89138987	          0.14281682	          0.01000015	          0.01000040	          0.01806397	          0.02467259	          0.01586051	          0.03474989	          0.01000457	          0.04224181	          0.01222068	          0.03395128	          0.04626736	          0.19079279	          0.01000024	          0.11553783	          0.06011652	          0.01000038	          0.11455343	          0.13304259	          0.04988363	          0.02763750	          0.07384676	          0.01000085	          0.01000091	          0.03836461	          0.01000051	          0.01000015	          0.35359000	
